<svg width="62" height="62" viewBox="0 0 62 62" fill="none" xmlns="http://www.w3.org/2000/svg">
<path d="M31 5.16667C45.2445 5.16667 56.8333 16.7555 56.8333 31C56.8333 45.2445 45.2445 56.8333 31 56.8333C16.7555 56.8333 5.16667 45.2445 5.16667 31C5.16667 16.7555 16.7555 5.16667 31 5.16667ZM31 0C13.8802 0 0 13.8802 0 31C0 48.1197 13.8802 62 31 62C48.1197 62 62 48.1197 62 31C62 13.8802 48.1197 0 31 0ZM31 32.4208L15.5207 20.615H46.4767L31 32.4208ZM31 35.7482L15.5 23.7899V41.2817H46.5V23.7899L31 35.7482Z" fill="black"/>
</svg>
