<svg width="516" height="303" viewBox="0 0 516 303" fill="none" xmlns="http://www.w3.org/2000/svg">
<rect width="516" height="303" fill="white"/>
<path d="M212.101 173.5L258 94L303.899 173.5L212.101 173.5Z" fill="black" stroke="black" stroke-width="10"/>
<path d="M212.101 173.5L258 94L303.899 173.5L212.101 173.5Z" fill="black" stroke="black" stroke-width="10"/>
<path d="M258.5 104L240 136.23C240 136.23 250.5 143.46 258.5 136.23C266.5 129 277 136.23 277 136.23L258.5 104Z" fill="white"/>
<path d="M212.101 173.5L258 94L303.899 173.5L212.101 173.5Z" fill="black" stroke="black" stroke-width="10"/>
<path d="M212.101 173.5L258 94L303.899 173.5L212.101 173.5Z" fill="black" stroke="black" stroke-width="10"/>
<path d="M258.5 104L240 136.23C240 136.23 250.5 143.46 258.5 136.23C266.5 129 277 136.23 277 136.23L258.5 104Z" fill="white"/>
<path d="M214.477 186.797V192.07H219.188V196.816H214.477V201.844C214.477 202.711 214.652 203.402 215.004 203.918C215.379 204.41 215.895 204.656 216.551 204.656C217.582 204.656 218.531 204.398 219.398 203.883V208.594C219.023 209.109 218.426 209.566 217.605 209.965C216.809 210.34 215.824 210.527 214.652 210.527C213.527 210.527 212.496 210.27 211.559 209.754C210.621 209.238 209.859 208.5 209.273 207.539C208.711 206.578 208.43 205.418 208.43 204.059V196.816H205.406V193.125C206.555 192.82 207.68 192.164 208.781 191.156C209.906 190.125 210.727 188.672 211.242 186.797H214.477ZM239.305 191.543C240.243 191.543 241.157 191.754 242.048 192.176C242.962 192.574 243.712 193.09 244.298 193.723V192.07H250.344V210H244.298V207.012C243.852 207.996 243.173 208.828 242.258 209.508C241.344 210.188 240.243 210.527 238.954 210.527C237.618 210.527 236.364 210.188 235.192 209.508C234.02 208.828 233.059 207.785 232.309 206.379C231.583 204.949 231.219 203.156 231.219 201C231.219 198.984 231.583 197.273 232.309 195.867C233.059 194.461 234.044 193.395 235.262 192.668C236.505 191.918 237.852 191.543 239.305 191.543ZM240.571 197.449C239.704 197.449 238.977 197.801 238.391 198.504C237.829 199.207 237.548 200.039 237.548 201C237.548 201.961 237.84 202.77 238.426 203.426C239.012 204.082 239.786 204.41 240.747 204.41C241.262 204.41 241.79 204.281 242.329 204.023C242.868 203.742 243.325 203.332 243.7 202.793C244.098 202.23 244.298 201.516 244.298 200.648V198.926C243.782 198.504 243.196 198.152 242.54 197.871C241.907 197.59 241.251 197.449 240.571 197.449ZM270.673 184.688V199.277L276.404 192.07H283.716L276.474 199.805L284.033 210H276.404L272.607 203.953L270.673 205.992V210H264.626V184.688H270.673ZM303.529 187.256C304.879 187.256 306.108 187.499 307.215 187.986C308.322 188.473 309.207 189.182 309.871 190.111C310.535 191.041 310.867 192.17 310.867 193.498C310.867 194.782 310.568 195.811 309.971 196.586C309.373 197.361 308.709 197.925 307.978 198.279C308.576 198.479 309.141 198.822 309.672 199.309C310.225 199.773 310.668 200.349 311 201.035C311.354 201.699 311.531 202.452 311.531 203.293C311.531 204.732 311.166 205.993 310.435 207.078C309.727 208.163 308.764 209.004 307.547 209.602C306.329 210.199 304.99 210.498 303.529 210.498C302.068 210.498 300.729 210.199 299.512 209.602C298.316 209.004 297.353 208.163 296.623 207.078C295.893 205.993 295.527 204.732 295.527 203.293C295.527 202.452 295.693 201.699 296.025 201.035C296.379 200.349 296.833 199.773 297.387 199.309C297.94 198.822 298.504 198.479 299.08 198.279C298.35 197.925 297.685 197.361 297.088 196.586C296.49 195.811 296.191 194.782 296.191 193.498C296.191 192.17 296.523 191.041 297.187 190.111C297.851 189.182 298.737 188.473 299.844 187.986C300.95 187.499 302.179 187.256 303.529 187.256ZM303.529 192.27C302.976 192.27 302.5 192.469 302.101 192.867C301.725 193.243 301.537 193.786 301.537 194.494C301.537 195.18 301.725 195.745 302.101 196.188C302.5 196.63 302.976 196.852 303.529 196.852C304.105 196.852 304.581 196.63 304.957 196.188C305.333 195.745 305.521 195.18 305.521 194.494C305.521 193.786 305.333 193.243 304.957 192.867C304.581 192.469 304.105 192.27 303.529 192.27ZM303.529 200.637C302.887 200.637 302.356 200.858 301.935 201.301C301.537 201.721 301.338 202.319 301.338 203.094C301.338 203.868 301.537 204.466 301.935 204.887C302.356 205.285 302.887 205.484 303.529 205.484C304.171 205.484 304.691 205.285 305.09 204.887C305.51 204.466 305.721 203.868 305.721 203.094C305.721 202.319 305.51 201.721 305.09 201.301C304.691 200.858 304.171 200.637 303.529 200.637Z" fill="black"/>
<path d="M214.477 186.797H215.077V186.197H214.477V186.797ZM214.477 192.07H213.877V192.67H214.477V192.07ZM219.188 192.07H219.788V191.47H219.188V192.07ZM219.188 196.816V197.416H219.788V196.816H219.188ZM214.477 196.816V196.216H213.877V196.816H214.477ZM215.004 203.918L214.508 204.256L214.517 204.269L214.527 204.282L215.004 203.918ZM219.398 203.883H219.998V202.828L219.092 203.367L219.398 203.883ZM219.398 208.594L219.884 208.947L219.998 208.789V208.594H219.398ZM217.605 209.965L217.861 210.508L217.868 210.505L217.605 209.965ZM209.273 207.539L208.756 207.842L208.761 207.851L209.273 207.539ZM208.43 196.816H209.03V196.216H208.43V196.816ZM205.406 196.816H204.806V197.416H205.406V196.816ZM205.406 193.125L205.252 192.545L204.806 192.663V193.125H205.406ZM208.781 191.156L209.186 191.599L209.187 191.599L208.781 191.156ZM211.242 186.797V186.197H210.785L210.664 186.638L211.242 186.797ZM213.877 186.797V192.07H215.077V186.797H213.877ZM214.477 192.67H219.188V191.47H214.477V192.67ZM218.587 192.07V196.816H219.788V192.07H218.587ZM219.188 196.216H214.477V197.416H219.188V196.216ZM213.877 196.816V201.844H215.077V196.816H213.877ZM213.877 201.844C213.877 202.786 214.067 203.609 214.508 204.256L215.5 203.58C215.238 203.196 215.077 202.636 215.077 201.844H213.877ZM214.527 204.282C215.023 204.933 215.72 205.256 216.551 205.256V204.056C216.069 204.056 215.735 203.887 215.481 203.554L214.527 204.282ZM216.551 205.256C217.687 205.256 218.743 204.971 219.705 204.399L219.092 203.367C218.32 203.826 217.477 204.056 216.551 204.056V205.256ZM218.798 203.883V208.594H219.998V203.883H218.798ZM218.913 208.241C218.616 208.65 218.111 209.052 217.343 209.425L217.868 210.505C218.741 210.08 219.431 209.569 219.884 208.947L218.913 208.241ZM217.35 209.422C216.655 209.749 215.764 209.927 214.652 209.927V211.127C215.885 211.127 216.962 210.931 217.861 210.508L217.35 209.422ZM214.652 209.927C213.623 209.927 212.692 209.693 211.848 209.228L211.269 210.28C212.3 210.847 213.432 211.127 214.652 211.127V209.927ZM211.848 209.228C211.007 208.766 210.32 208.103 209.786 207.227L208.761 207.851C209.399 208.897 210.235 209.711 211.269 210.28L211.848 209.228ZM209.791 207.236C209.293 206.385 209.03 205.335 209.03 204.059H207.83C207.83 205.501 208.129 206.771 208.756 207.842L209.791 207.236ZM209.03 204.059V196.816H207.83V204.059H209.03ZM208.43 196.216H205.406V197.416H208.43V196.216ZM206.006 196.816V193.125H204.806V196.816H206.006ZM205.56 193.705C206.823 193.37 208.031 192.656 209.186 191.599L208.376 190.714C207.328 191.672 206.286 192.271 205.252 192.545L205.56 193.705ZM209.187 191.599C210.415 190.473 211.283 188.91 211.821 186.956L210.664 186.638C210.17 188.433 209.398 189.777 208.376 190.714L209.187 191.599ZM211.242 187.397H214.477V186.197H211.242V187.397ZM242.048 192.176L241.791 192.718L241.799 192.722L241.808 192.726L242.048 192.176ZM244.298 193.723L243.857 194.13L244.898 195.254V193.723H244.298ZM244.298 192.07V191.47H243.698V192.07H244.298ZM250.344 192.07H250.944V191.47H250.344V192.07ZM250.344 210V210.6H250.944V210H250.344ZM244.298 210H243.698V210.6H244.298V210ZM244.298 207.012H244.898L243.751 206.764L244.298 207.012ZM232.309 206.379L231.774 206.651L231.78 206.661L232.309 206.379ZM232.309 195.867L231.78 195.585L231.776 195.592L232.309 195.867ZM235.262 192.668L235.57 193.183L235.572 193.182L235.262 192.668ZM238.391 198.504L237.93 198.12L237.923 198.129L238.391 198.504ZM242.329 204.023L242.588 204.565L242.597 204.56L242.606 204.555L242.329 204.023ZM243.7 202.793L243.21 202.446L243.207 202.45L243.7 202.793ZM244.298 198.926H244.898V198.641L244.677 198.461L244.298 198.926ZM242.54 197.871L242.296 198.419L242.303 198.423L242.54 197.871ZM239.305 192.143C240.149 192.143 240.976 192.332 241.791 192.718L242.304 191.634C241.338 191.176 240.336 190.943 239.305 190.943V192.143ZM241.808 192.726C242.658 193.096 243.336 193.567 243.857 194.13L244.738 193.315C244.087 192.613 243.265 192.052 242.287 191.626L241.808 192.726ZM244.898 193.723V192.07H243.698V193.723H244.898ZM244.298 192.67H250.344V191.47H244.298V192.67ZM249.744 192.07V210H250.944V192.07H249.744ZM250.344 209.4H244.298V210.6H250.344V209.4ZM244.898 210V207.012H243.698V210H244.898ZM243.751 206.764C243.35 207.651 242.737 208.404 241.9 209.026L242.616 209.989C243.608 209.252 244.355 208.341 244.844 207.259L243.751 206.764ZM241.9 209.026C241.103 209.619 240.132 209.927 238.954 209.927V211.127C240.354 211.127 241.585 210.756 242.616 209.989L241.9 209.026ZM238.954 209.927C237.725 209.927 236.575 209.616 235.493 208.989L234.891 210.027C236.153 210.759 237.511 211.127 238.954 211.127V209.927ZM235.493 208.989C234.434 208.374 233.545 207.422 232.839 206.097L231.78 206.661C232.573 208.148 233.606 209.282 234.891 210.027L235.493 208.989ZM232.844 206.107C232.172 204.786 231.819 203.093 231.819 201H230.619C230.619 203.22 230.993 205.113 231.774 206.651L232.844 206.107ZM231.819 201C231.819 199.055 232.17 197.444 232.842 196.143L231.776 195.592C230.995 197.103 230.619 198.914 230.619 201H231.819ZM232.839 196.15C233.544 194.828 234.456 193.847 235.57 193.183L234.955 192.153C233.631 192.942 232.575 194.094 231.78 195.585L232.839 196.15ZM235.572 193.182C236.721 192.488 237.961 192.143 239.305 192.143V190.943C237.743 190.943 236.288 191.348 234.952 192.154L235.572 193.182ZM240.571 196.849C239.515 196.849 238.623 197.289 237.93 198.12L238.852 198.888C239.331 198.313 239.893 198.049 240.571 198.049V196.849ZM237.923 198.129C237.269 198.946 236.948 199.913 236.948 201H238.148C238.148 200.165 238.388 199.468 238.86 198.879L237.923 198.129ZM236.948 201C236.948 202.094 237.285 203.049 237.979 203.825L238.874 203.026C238.396 202.49 238.148 201.828 238.148 201H236.948ZM237.979 203.825C238.69 204.622 239.633 205.01 240.747 205.01V203.81C239.939 203.81 239.335 203.542 238.874 203.026L237.979 203.825ZM240.747 205.01C241.365 205.01 241.981 204.855 242.588 204.565L242.07 203.482C241.599 203.707 241.16 203.81 240.747 203.81V205.01ZM242.606 204.555C243.238 204.226 243.767 203.748 244.192 203.136L243.207 202.45C242.883 202.916 242.498 203.259 242.051 203.491L242.606 204.555ZM244.189 203.14C244.676 202.452 244.898 201.608 244.898 200.648H243.698C243.698 201.424 243.52 202.009 243.21 202.446L244.189 203.14ZM244.898 200.648V198.926H243.698V200.648H244.898ZM244.677 198.461C244.115 198.001 243.48 197.621 242.776 197.32L242.303 198.423C242.912 198.683 243.448 199.006 243.918 199.39L244.677 198.461ZM242.783 197.323C242.075 197.008 241.336 196.849 240.571 196.849V198.049C241.165 198.049 241.738 198.172 242.296 198.419L242.783 197.323ZM270.673 184.688H271.273V184.087H270.673V184.688ZM270.673 199.277H270.073V200.996L271.143 199.651L270.673 199.277ZM276.404 192.07V191.47H276.114L275.934 191.697L276.404 192.07ZM283.716 192.07L284.154 192.48L285.1 191.47H283.716V192.07ZM276.474 199.805L276.036 199.395L275.694 199.76L275.992 200.162L276.474 199.805ZM284.033 210V210.6H285.224L284.514 209.643L284.033 210ZM276.404 210L275.895 210.319L276.072 210.6H276.404V210ZM272.607 203.953L273.115 203.634L272.704 202.979L272.171 203.54L272.607 203.953ZM270.673 205.992L270.238 205.579L270.073 205.753V205.992H270.673ZM270.673 210V210.6H271.273V210H270.673ZM264.626 210H264.026V210.6H264.626V210ZM264.626 184.688V184.087H264.026V184.688H264.626ZM270.073 184.688V199.277H271.273V184.688H270.073ZM271.143 199.651L276.873 192.444L275.934 191.697L270.203 198.904L271.143 199.651ZM276.404 192.67H283.716V191.47H276.404V192.67ZM283.278 191.66L276.036 199.395L276.912 200.215L284.154 192.48L283.278 191.66ZM275.992 200.162L283.551 210.357L284.514 209.643L276.956 199.447L275.992 200.162ZM284.033 209.4H276.404V210.6H284.033V209.4ZM276.912 209.681L273.115 203.634L272.099 204.272L275.895 210.319L276.912 209.681ZM272.171 203.54L270.238 205.579L271.109 206.405L273.042 204.366L272.171 203.54ZM270.073 205.992V210H271.273V205.992H270.073ZM270.673 209.4H264.626V210.6H270.673V209.4ZM265.226 210V184.688H264.026V210H265.226ZM264.626 185.288H270.673V184.087H264.626V185.288ZM307.978 198.279L307.717 197.739L306.39 198.382L307.789 198.849L307.978 198.279ZM309.672 199.309L309.266 199.751L309.276 199.76L309.286 199.768L309.672 199.309ZM311 201.035L310.46 201.296L310.465 201.307L310.471 201.318L311 201.035ZM310.435 207.078L309.938 206.743L309.933 206.75L310.435 207.078ZM299.512 209.602L299.243 210.138L299.247 210.14L299.512 209.602ZM296.025 201.035L295.492 200.76L295.489 200.767L296.025 201.035ZM297.387 199.309L297.773 199.768L297.783 199.759L297.387 199.309ZM299.08 198.279L299.276 198.846L300.646 198.372L299.342 197.739L299.08 198.279ZM302.101 192.867L302.526 193.291L302.101 192.867ZM302.101 196.188L301.644 196.576L301.65 196.583L301.656 196.589L302.101 196.188ZM304.957 192.867L304.521 193.279L304.527 193.285L304.533 193.291L304.957 192.867ZM301.935 201.301L301.5 200.888L301.5 200.888L301.935 201.301ZM301.935 204.887L301.5 205.299L301.511 205.311L301.523 205.322L301.935 204.887ZM305.09 204.887L304.666 204.462L305.09 204.887ZM305.09 201.301L304.644 201.702L304.654 201.714L304.666 201.725L305.09 201.301ZM303.529 187.856C304.806 187.856 305.951 188.086 306.973 188.536L307.456 187.437C306.265 186.913 304.953 186.656 303.529 186.656V187.856ZM306.973 188.536C307.987 188.982 308.785 189.623 309.383 190.46L310.359 189.763C309.629 188.74 308.656 187.965 307.456 187.437L306.973 188.536ZM309.383 190.46C309.963 191.272 310.267 192.274 310.267 193.498H311.467C311.467 192.066 311.107 190.81 310.359 189.763L309.383 190.46ZM310.267 193.498C310.267 194.691 309.99 195.578 309.496 196.219L310.446 196.952C311.146 196.044 311.467 194.873 311.467 193.498H310.267ZM309.496 196.219C308.943 196.936 308.348 197.433 307.717 197.739L308.24 198.819C309.07 198.417 309.803 197.786 310.446 196.952L309.496 196.219ZM307.789 198.849C308.296 199.017 308.788 199.313 309.266 199.751L310.077 198.866C309.493 198.331 308.857 197.94 308.168 197.71L307.789 198.849ZM309.286 199.768C309.771 200.175 310.163 200.682 310.46 201.296L311.54 200.774C311.173 200.016 310.679 199.371 310.058 198.849L309.286 199.768ZM310.471 201.318C310.773 201.885 310.931 202.539 310.931 203.293H312.131C312.131 202.365 311.935 201.514 311.529 200.753L310.471 201.318ZM310.931 203.293C310.931 204.625 310.595 205.767 309.938 206.743L310.933 207.413C311.737 206.22 312.131 204.839 312.131 203.293H310.931ZM309.933 206.75C309.287 207.74 308.408 208.51 307.282 209.063L307.811 210.14C309.121 209.497 310.168 208.585 310.938 207.406L309.933 206.75ZM307.282 209.063C306.153 209.617 304.906 209.898 303.529 209.898V211.098C305.075 211.098 306.505 210.781 307.811 210.14L307.282 209.063ZM303.529 209.898C302.153 209.898 300.905 209.617 299.776 209.063L299.247 210.14C300.553 210.781 301.984 211.098 303.529 211.098V209.898ZM299.78 209.065C298.675 208.512 297.792 207.74 297.121 206.743L296.125 207.413C296.915 208.586 297.958 209.495 299.243 210.138L299.78 209.065ZM297.121 206.743C296.464 205.767 296.127 204.625 296.127 203.293H294.927C294.927 204.839 295.321 206.22 296.125 207.413L297.121 206.743ZM296.127 203.293C296.127 202.533 296.277 201.874 296.562 201.303L295.489 200.767C295.11 201.525 294.927 202.371 294.927 203.293H296.127ZM296.558 201.31C296.879 200.69 297.284 200.178 297.773 199.768L297.001 198.849C296.382 199.369 295.88 200.008 295.492 200.76L296.558 201.31ZM297.783 199.759C298.29 199.313 298.788 199.015 299.276 198.846L298.884 197.712C298.221 197.942 297.59 198.33 296.99 198.858L297.783 199.759ZM299.342 197.739C298.71 197.433 298.115 196.936 297.563 196.219L296.613 196.952C297.256 197.786 297.989 198.417 298.818 198.819L299.342 197.739ZM297.563 196.219C297.068 195.578 296.791 194.691 296.791 193.498H295.591C295.591 194.873 295.912 196.044 296.613 196.952L297.563 196.219ZM296.791 193.498C296.791 192.274 297.096 191.272 297.676 190.46L296.699 189.763C295.951 190.81 295.591 192.066 295.591 193.498H296.791ZM297.676 190.46C298.273 189.623 299.071 188.982 300.085 188.536L299.602 187.437C298.403 187.965 297.43 188.74 296.699 189.763L297.676 190.46ZM300.085 188.536C301.108 188.086 302.252 187.856 303.529 187.856V186.656C302.105 186.656 300.793 186.913 299.602 187.437L300.085 188.536ZM303.529 191.67C302.813 191.67 302.186 191.934 301.677 192.443L302.526 193.291C302.814 193.003 303.138 192.87 303.529 192.87V191.67ZM301.677 192.443C301.155 192.965 300.937 193.681 300.937 194.494H302.137C302.137 193.89 302.295 193.522 302.526 193.291L301.677 192.443ZM300.937 194.494C300.937 195.296 301.16 196.006 301.644 196.576L302.559 195.799C302.291 195.484 302.137 195.065 302.137 194.494H300.937ZM301.656 196.589C302.158 197.147 302.792 197.452 303.529 197.452V196.252C303.16 196.252 302.842 196.113 302.547 195.786L301.656 196.589ZM303.529 197.452C304.283 197.452 304.925 197.151 305.414 196.576L304.5 195.799C304.236 196.109 303.927 196.252 303.529 196.252V197.452ZM305.414 196.576C305.899 196.006 306.121 195.296 306.121 194.494H304.921C304.921 195.065 304.768 195.484 304.5 195.799L305.414 196.576ZM306.121 194.494C306.121 193.681 305.903 192.965 305.381 192.443L304.533 193.291C304.763 193.522 304.921 193.89 304.921 194.494H306.121ZM305.393 192.455C304.897 191.93 304.261 191.67 303.529 191.67V192.87C303.949 192.87 304.264 193.007 304.521 193.279L305.393 192.455ZM303.529 200.037C302.732 200.037 302.041 200.319 301.5 200.888L302.37 201.714C302.671 201.397 303.042 201.237 303.529 201.237V200.037ZM301.5 200.888C300.964 201.453 300.738 202.218 300.738 203.094H301.938C301.938 202.42 302.11 201.989 302.371 201.713L301.5 200.888ZM300.738 203.094C300.738 203.969 300.964 204.734 301.5 205.299L302.371 204.474C302.11 204.198 301.938 203.768 301.938 203.094H300.738ZM301.523 205.322C302.067 205.838 302.752 206.084 303.529 206.084V204.884C303.023 204.884 302.645 204.732 302.348 204.451L301.523 205.322ZM303.529 206.084C304.306 206.084 304.987 205.838 305.514 205.311L304.666 204.462C304.396 204.732 304.036 204.884 303.529 204.884V206.084ZM305.514 205.311C306.078 204.747 306.321 203.977 306.321 203.094H305.121C305.121 203.76 304.942 204.185 304.666 204.462L305.514 205.311ZM306.321 203.094C306.321 202.21 306.078 201.441 305.514 200.877L304.666 201.725C304.942 202.002 305.121 202.428 305.121 203.094H306.321ZM305.536 200.899C305.014 200.32 304.326 200.037 303.529 200.037V201.237C304.016 201.237 304.369 201.397 304.644 201.702L305.536 200.899Z" fill="black"/>
</svg>
