<svg width="28" height="27" viewBox="0 0 28 27" fill="none" xmlns="http://www.w3.org/2000/svg">
<path d="M3.00409 7.3312C1.76418 8.04511 1 9.36691 1 10.7977V21.5556C1 23.7647 2.79086 25.5556 5 25.5556H23C25.2091 25.5556 27 23.7647 27 21.5556V10.7977C27 9.36691 26.2358 8.04511 24.9959 7.3312L15.9959 2.1492C14.7604 1.43781 13.2396 1.43781 12.0041 2.1492L3.00409 7.3312Z" stroke="#131516" stroke-width="2" stroke-linecap="round" stroke-linejoin="round"/>
<path d="M14.3333 14H13.6666C11.4575 14 9.66663 15.7909 9.66663 18V21.5556C9.66663 23.7647 11.4575 25.5556 13.6666 25.5556H14.3333C16.5424 25.5556 18.3333 23.7647 18.3333 21.5556V18C18.3333 15.7909 16.5424 14 14.3333 14Z" stroke="#131516" stroke-width="2" stroke-linecap="round" stroke-linejoin="round"/>
</svg>
